<?xml version="1.0" standalone="no"?>
<!DOCTYPE svg PUBLIC "-//W3C//DTD SVG 20010904//EN"
 "http://www.w3.org/TR/2001/REC-SVG-20010904/DTD/svg10.dtd">
<svg version="1.0" xmlns="http://www.w3.org/2000/svg"
 width="567.000000pt" height="518.000000pt" viewBox="0 0 567.000000 518.000000"
 preserveAspectRatio="xMidYMid meet">

<g transform="translate(0.000000,518.000000) scale(0.100000,-0.100000)"
fill="#000000" stroke="none">
<path d="M5 2590 c0 -1427 1 -2011 2 -1297 2 713 2 1881 0 2595 -1 713 -2 129
-2 -1298z"/>
<path d="M2625 4466 c-389 -57 -707 -207 -969 -457 -166 -158 -263 -287 -360
-479 -117 -230 -174 -474 -185 -799 -2 -62 31 -279 60 -393 117 -461 456 -881
883 -1092 72 -35 163 -76 203 -90 40 -14 81 -31 92 -38 18 -11 24 -9 48 14 15
15 41 32 56 37 39 15 122 14 160 -3 34 -14 82 -60 101 -96 10 -21 18 -22 151
-22 l140 1 3 31 c2 17 -2 37 -8 45 -8 10 -4 15 17 23 15 5 36 13 46 17 16 7
17 -4 17 -154 0 -179 17 -226 22 -60 3 96 5 103 28 121 14 10 49 21 79 25 37
4 69 17 105 41 50 34 52 34 138 30 49 -2 83 -1 76 3 -18 12 7 35 71 68 103 52
124 64 190 109 200 136 375 316 497 512 84 133 146 264 181 382 11 39 31 64
103 134 206 199 293 403 270 629 -32 309 -248 619 -660 949 -63 50 -127 99
-141 108 l-25 16 4 -110 c8 -183 -32 -339 -152 -597 -150 -324 -167 -450 -86
-645 17 -40 57 -109 89 -152 79 -108 334 -354 366 -354 6 0 23 33 38 73 91
241 95 534 12 936 -14 69 -24 130 -22 135 7 19 57 -104 92 -225 45 -154 65
-298 65 -455 -1 -159 -12 -251 -46 -374 -96 -341 -341 -670 -659 -881 -89 -59
-287 -153 -395 -187 -119 -38 -277 -62 -445 -69 -104 -5 -154 -2 -250 15 -66
11 -142 23 -170 27 -164 21 -444 157 -628 305 -133 106 -326 319 -298 328 7 2
29 -12 50 -31 95 -86 265 -181 414 -230 142 -48 234 -60 422 -54 152 4 181 8
280 36 207 60 386 164 534 311 379 377 468 941 223 1414 -216 418 -664 676
-1136 653 -316 -15 -601 -143 -826 -371 -35 -36 -68 -66 -72 -66 -24 0 111
203 209 316 230 263 546 442 908 515 160 32 422 33 590 1 223 -42 422 -124
612 -251 50 -34 100 -61 111 -61 21 0 52 34 52 56 0 21 -35 51 -130 114 -185
121 -407 209 -631 250 -145 27 -390 34 -514 16z m-69 -641 c446 -78 785 -396
897 -844 31 -128 31 -370 -2 -495 -114 -436 -444 -750 -874 -832 -105 -20
-309 -20 -408 -1 -394 79 -717 353 -841 715 -140 410 -43 839 259 1146 248
251 621 371 969 311z"/>
<path d="M2204 3470 c-94 -26 -181 -76 -249 -143 -74 -74 -119 -133 -111 -146
3 -5 -1 -11 -9 -15 -17 -6 -61 -98 -98 -206 -52 -152 -60 -396 -18 -529 12
-35 21 -67 21 -72 0 -22 82 -141 131 -189 48 -48 179 -130 179 -111 0 3 -16
23 -35 43 -19 20 -35 40 -35 44 0 4 -10 16 -22 28 -13 12 -24 28 -26 36 -2 7
-11 25 -21 39 -23 32 -76 195 -91 275 -16 92 -12 207 11 317 23 111 45 168 97
249 68 107 84 129 123 171 21 23 39 44 39 46 0 4 -27 -3 -57 -14 -25 -10 -13
14 13 26 20 9 30 9 40 0 12 -9 26 -3 72 33 57 44 193 118 218 118 7 0 15 4 18
9 10 15 -126 9 -190 -9z m-194 -140 c0 -5 -5 -10 -11 -10 -5 0 -7 5 -4 10 3 6
8 10 11 10 2 0 4 -4 4 -10z m-40 -30 c0 -5 -5 -10 -11 -10 -5 0 -7 5 -4 10 3
6 8 10 11 10 2 0 4 -4 4 -10z m-73 -82 c-3 -8 -6 -5 -6 6 -1 11 2 17 5 13 3
-3 4 -12 1 -19z m33 -35 c0 -21 -3 -24 -9 -14 -5 8 -7 20 -4 28 8 21 13 15 13
-14z m-205 -352 c3 -5 1 -12 -5 -16 -5 -3 -10 1 -10 9 0 18 6 21 15 7z m85
-11 c0 -5 -2 -10 -4 -10 -3 0 -8 5 -11 10 -3 6 -1 10 4 10 6 0 11 -4 11 -10z
m-23 -232 c-3 -8 -6 -5 -6 6 -1 11 2 17 5 13 3 -3 4 -12 1 -19z m105 -343 c3
-14 1 -25 -3 -25 -5 0 -9 4 -9 9 0 5 -3 16 -6 25 -3 9 -2 16 4 16 5 0 12 -11
14 -25z"/>
<path d="M2444 3410 c-45 -9 -135 -51 -204 -95 -94 -59 -263 -256 -245 -285 3
-6 2 -10 -4 -10 -12 0 -55 -90 -76 -160 -9 -30 -19 -107 -22 -170 -5 -102 -2
-126 20 -211 26 -99 78 -215 117 -259 12 -14 19 -19 15 -13 -4 9 -1 11 10 7 9
-4 14 -13 10 -22 -8 -21 57 -80 130 -118 70 -37 154 -57 200 -48 l33 6 -66 35
c-37 19 -95 59 -128 89 -34 29 -65 50 -68 46 -4 -4 -6 -2 -4 3 1 6 -9 26 -25
46 -15 20 -27 39 -27 43 0 5 -8 20 -19 34 -28 40 -62 138 -76 220 -15 83 -6
220 19 312 17 60 65 160 78 160 4 0 8 7 8 15 0 9 -6 12 -17 8 -11 -4 -14 -3
-9 5 4 7 15 12 24 12 10 0 46 30 81 66 35 36 81 77 102 91 22 14 39 30 39 35
0 5 4 7 9 4 5 -3 33 5 63 19 77 36 185 57 267 53 39 -1 71 -1 71 2 0 8 -60 42
-109 62 -52 22 -141 30 -197 18z m-19 -80 c-3 -5 -11 -10 -16 -10 -6 0 -7 5
-4 10 3 6 11 10 16 10 6 0 7 -4 4 -10z m-115 -20 c8 -5 11 -10 5 -10 -5 0 -17
5 -25 10 -8 5 -10 10 -5 10 6 0 17 -5 25 -10z m-40 -44 c0 -2 -7 -6 -15 -10
-8 -3 -15 -1 -15 4 0 6 7 10 15 10 8 0 15 -2 15 -4z m-70 -75 c-6 -12 -9 -25
-6 -29 2 -4 -6 -7 -19 -7 -25 0 -23 7 8 42 24 27 33 23 17 -6z m-79 -28 c-8
-15 -10 -15 -11 -2 0 17 10 32 18 25 2 -3 -1 -13 -7 -23z m-67 -78 c-4 -8 -8
-15 -10 -15 -2 0 -4 7 -4 15 0 8 4 15 10 15 5 0 7 -7 4 -15z m-24 -78 c0 -2
-9 -12 -20 -22 -17 -16 -20 -16 -20 -2 0 8 8 18 18 20 9 3 18 5 20 6 1 0 2 -1
2 -2z m-26 -102 c-4 -8 -8 -15 -10 -15 -2 0 -4 7 -4 15 0 8 4 15 10 15 5 0 7
-7 4 -15z m20 -470 c3 -9 0 -15 -9 -15 -8 0 -15 7 -15 15 0 8 4 15 9 15 5 0
11 -7 15 -15z m88 -195 c3 -19 1 -29 -6 -27 -6 2 -12 18 -14 36 -4 41 14 33
20 -9z m-32 0 c0 -5 -4 -10 -10 -10 -5 0 -10 5 -10 10 0 6 5 10 10 10 6 0 10
-4 10 -10z m79 -93 c0 -21 -1 -21 -9 -2 -12 28 -12 37 0 30 6 -3 10 -16 9 -28z
m-24 3 c3 -5 1 -10 -4 -10 -6 0 -11 5 -11 10 0 6 2 10 4 10 3 0 8 -4 11 -10z
m75 0 c0 -5 -4 -10 -10 -10 -5 0 -10 5 -10 10 0 6 5 10 10 10 6 0 10 -4 10
-10z m39 -34 c9 -10 5 -13 -18 -12 -22 1 -27 4 -19 14 13 16 23 15 37 -2z m-9
-36 c0 -5 -7 -7 -15 -4 -8 4 -15 8 -15 10 0 2 7 4 15 4 8 0 15 -4 15 -10z
m127 -36 c-3 -3 -12 -4 -19 -1 -8 3 -5 6 6 6 11 1 17 -2 13 -5z"/>
<path d="M1830 3336 c-30 -24 -69 -59 -86 -77 -47 -51 -121 -164 -135 -207 -6
-20 -15 -41 -19 -47 -4 -5 -12 -32 -19 -60 -7 -27 -14 -58 -18 -69 -3 -12 -1
-16 6 -12 8 5 8 0 1 -19 -14 -37 -12 -190 4 -255 15 -59 39 -124 69 -180 18
-35 18 -35 12 -5 -3 17 -8 39 -10 50 -2 11 -4 20 -5 20 -10 0 -14 253 -5 321
29 210 123 418 248 552 44 45 22 40 -43 -12z m-70 -106 c0 -5 -4 -10 -10 -10
-5 0 -10 5 -10 10 0 6 5 10 10 10 6 0 10 -4 10 -10z m-120 -280 c0 -5 -4 -10
-10 -10 -5 0 -10 5 -10 10 0 6 5 10 10 10 6 0 10 -4 10 -10z m-20 -40 c0 -5
-4 -10 -10 -10 -5 0 -10 5 -10 10 0 6 5 10 10 10 6 0 10 -4 10 -10z"/>
<path d="M2470 3214 c-124 -56 -195 -106 -257 -183 -57 -70 -60 -79 -37 -96
18 -13 18 -14 -3 -9 -16 5 -25 -1 -36 -23 -45 -86 -62 -258 -38 -375 25 -119
155 -316 231 -350 17 -7 30 -16 30 -20 0 -5 5 -8 11 -8 7 0 8 7 4 18 -30 69
-105 307 -110 347 -12 105 -15 219 -7 275 6 40 6 66 0 69 -5 1 -2 8 6 15 8 6
17 23 20 38 6 36 15 50 27 42 6 -3 8 -18 4 -32 -36 -168 -10 -415 60 -555 8
-16 15 -37 15 -46 1 -24 28 54 46 132 18 77 16 100 -16 242 -17 75 -23 133
-24 230 -1 117 2 134 22 173 13 23 20 47 17 53 -4 5 -3 8 2 7 5 -2 24 14 42
35 18 20 31 37 30 37 -2 0 -20 -8 -39 -16z m-50 -84 c0 -5 -2 -10 -4 -10 -3 0
-8 5 -11 10 -3 6 -1 10 4 10 6 0 11 -4 11 -10z m-209 -157 c-12 -20 -14 -14
-5 12 4 9 9 14 11 11 3 -2 0 -13 -6 -23z m199 -412 c0 -12 -20 -25 -27 -18 -7
7 6 27 18 27 5 0 9 -4 9 -9z m-220 -20 c0 -11 -4 -23 -10 -26 -6 -4 -10 5 -10
19 0 14 5 26 10 26 6 0 10 -9 10 -19z m237 -46 c9 -24 -1 -27 -15 -5 -8 13 -8
20 -2 20 6 0 13 -7 17 -15z m-202 -155 c3 -5 -1 -10 -9 -10 -9 0 -16 5 -16 10
0 6 4 10 9 10 6 0 13 -4 16 -10z"/>
<path d="M2634 3170 c-45 -21 -86 -58 -120 -110 -26 -40 -48 -120 -32 -120 6
0 6 -6 -1 -14 -14 -17 -9 -58 24 -171 55 -195 56 -206 9 -383 -34 -129 -34
-190 0 -219 28 -24 101 -39 141 -29 14 4 23 11 20 16 -3 5 1 7 9 4 9 -3 31 4
50 16 46 28 147 138 172 187 10 21 26 49 35 63 21 33 54 123 68 182 13 57 24
211 13 183 -47 -118 -102 -171 -140 -133 -18 18 -14 62 8 88 29 34 60 125 60
179 0 150 -105 281 -224 281 -29 -1 -69 -9 -92 -20z m-99 -389 c3 -5 1 -12 -5
-16 -5 -3 -10 1 -10 9 0 18 6 21 15 7z m315 -407 c0 -22 -2 -25 -15 -14 -12
10 -13 16 -4 26 16 20 19 18 19 -12z m-253 -230 c-3 -3 -12 -4 -19 -1 -8 3 -5
6 6 6 11 1 17 -2 13 -5z"/>
<path d="M2474 1129 c-17 -5 -39 -18 -49 -29 -17 -19 -18 -26 -12 -185 1 -22
-1 -49 -3 -60 -3 -12 0 -20 8 -20 17 0 25 171 9 197 -14 21 10 50 54 68 45 19
59 9 48 -37 -5 -21 -9 -78 -9 -127 l0 -88 38 6 c71 13 106 87 83 176 -12 49
-59 100 -90 100 -11 0 -25 2 -33 4 -7 2 -27 0 -44 -5z m145 -118 c13 -41 12
-48 -5 -80 -22 -41 -36 -47 -57 -27 -10 10 -14 32 -12 73 3 87 2 85 33 81 22
-2 29 -11 41 -47z"/>
<path d="M1621 1089 c-16 -26 -14 -29 13 -29 36 0 50 23 22 36 -19 9 -25 7
-35 -7z"/>
<path d="M3397 1082 c-14 -15 -17 -41 -17 -141 0 -94 3 -122 13 -119 6 3 14
15 15 29 2 13 8 29 13 36 7 7 3 23 -11 45 -24 40 -25 66 -4 96 11 16 24 22 41
20 34 -4 51 -31 34 -52 -12 -15 -15 -15 -27 1 -18 25 -44 1 -28 -25 30 -47 94
-11 94 53 0 64 -83 102 -123 57z"/>
<path d="M1720 1075 c-13 -15 -14 -14 35 -30 27 -8 40 -52 28 -96 -6 -22 -7
-42 -2 -44 10 -7 20 10 30 53 7 32 4 41 -26 78 -19 23 -31 44 -28 48 4 3 -1 6
-9 6 -9 0 -21 -7 -28 -15z"/>
<path d="M3600 1045 c0 -22 -9 -59 -20 -82 -18 -41 -18 -43 -1 -43 14 0 20
-10 25 -40 3 -22 11 -40 16 -40 15 0 12 124 -2 139 -11 10 -8 16 12 31 14 11
20 20 13 20 -7 0 -19 12 -27 28 l-15 27 -1 -40z"/>
<path d="M730 1060 c0 -5 5 -10 11 -10 5 0 7 5 4 10 -3 6 -8 10 -11 10 -2 0
-4 -4 -4 -10z"/>
<path d="M794 1036 c-10 -57 23 -114 40 -69 7 16 -10 81 -25 97 -4 5 -11 -8
-15 -28z"/>
<path d="M2110 1066 c0 -2 11 -6 25 -8 14 -3 25 -1 25 3 0 5 -11 9 -25 9 -14
0 -25 -2 -25 -4z"/>
<path d="M3267 953 c2 -65 3 -122 3 -128 0 -6 3 -6 9 0 12 12 18 216 7 233
-17 28 -21 5 -19 -105z"/>
<path d="M3940 1040 c0 -12 27 -12 55 0 16 7 13 9 -17 9 -21 1 -38 -3 -38 -9z"/>
<path d="M4525 1040 c-3 -5 1 -10 9 -10 8 0 18 5 21 10 3 6 -1 10 -9 10 -8 0
-18 -4 -21 -10z"/>
<path d="M1636 1008 c-9 -12 -16 -33 -16 -46 0 -25 41 -72 62 -72 7 1 1 8 -14
16 -32 17 -39 49 -9 39 30 -9 51 5 51 34 0 51 -46 69 -74 29z"/>
<path d="M2018 1013 c-13 -3 -15 -10 -7 -36 5 -18 7 -58 3 -89 -3 -32 -4 -58
-1 -58 3 0 14 16 26 35 11 19 28 35 38 35 14 0 14 3 -5 20 -16 15 -22 33 -22
60 0 22 -3 39 -7 39 -5 -1 -15 -3 -25 -6z"/>
<path d="M2737 968 c-4 -24 -9 -58 -13 -77 -6 -28 -4 -33 11 -30 12 3 19 15
22 34 1 17 5 44 7 62 3 19 -1 36 -8 42 -10 9 -15 2 -19 -31z"/>
<path d="M2965 954 c-13 -47 -21 -58 -49 -69 -24 -10 -43 -12 -65 -5 -18 5
-31 5 -31 0 0 -13 42 -50 56 -50 23 0 44 12 44 25 0 35 69 27 71 -8 2 -50 17
29 18 96 1 87 -20 93 -44 11z"/>
<path d="M3856 995 c-24 -25 -19 -178 7 -183 14 -3 17 4 17 42 0 35 5 48 22
60 26 18 71 21 99 6 16 -9 19 -7 19 10 0 30 -18 60 -35 60 -8 0 -15 -9 -15
-21 0 -17 -5 -20 -32 -17 -22 2 -36 10 -44 26 -16 33 -20 35 -38 17z"/>
<path d="M1118 984 c-2 -9 -1 -47 0 -86 3 -64 5 -69 24 -66 19 3 22 11 24 86
3 81 3 82 -21 82 -14 0 -25 -7 -27 -16z"/>
<path d="M1257 993 c-4 -3 -7 -42 -7 -85 0 -77 1 -79 23 -76 20 3 23 10 27 69
3 36 4 74 2 83 -3 16 -33 22 -45 9z"/>
<path d="M1517 993 c-4 -3 -7 -21 -7 -40 0 -23 5 -33 15 -33 11 0 15 11 15 40
0 38 -8 49 -23 33z"/>
<path d="M2843 993 c-20 -7 -15 -20 10 -27 21 -6 21 -7 5 -20 -23 -17 -23 -36
0 -36 24 0 42 19 42 45 0 35 -25 52 -57 38z"/>
<path d="M3706 969 c-11 -55 -7 -124 9 -145 15 -19 15 -19 35 5 14 16 20 38
20 72 0 81 -50 134 -64 68z"/>
<path d="M700 976 c0 -8 -11 -28 -25 -44 -27 -32 -31 -42 -15 -42 11 0 70 77
70 92 0 4 -7 8 -15 8 -8 0 -15 -6 -15 -14z"/>
<path d="M1850 960 c0 -42 30 -95 58 -102 45 -12 77 42 56 96 -8 20 -44 21
-44 1 0 -23 -20 -18 -46 13 l-24 27 0 -35z m75 -50 c-3 -5 -13 -6 -21 -3 -12
4 -13 8 -3 14 15 9 32 2 24 -11z"/>
<path d="M2116 981 c-9 -13 16 -30 67 -45 46 -14 46 -13 43 8 -3 11 -5 25 -5
29 -1 5 -9 1 -18 -9 -16 -16 -18 -15 -31 5 -15 21 -46 28 -56 12z"/>
<path d="M1410 950 c0 -16 5 -30 10 -30 6 0 10 14 10 30 0 17 -4 30 -10 30 -5
0 -10 -13 -10 -30z"/>
<path d="M4523 972 c-17 -11 -28 -68 -14 -76 6 -4 11 -1 11 7 0 10 10 14 33
13 27 -1 33 3 35 23 5 34 -33 53 -65 33z"/>
<path d="M5037 967 c-3 -9 2 -17 14 -20 23 -6 26 -27 3 -27 -9 0 -14 -5 -12
-12 12 -36 61 -1 56 41 -2 20 -9 27 -29 29 -16 2 -29 -3 -32 -11z"/>
<path d="M1385 961 c-3 -5 -1 -12 5 -16 5 -3 10 1 10 9 0 18 -6 21 -15 7z"/>
<path d="M4260 956 c-14 -18 -9 -62 6 -59 13 2 6 -44 -7 -53 -5 -3 -9 -14 -9
-25 0 -14 7 -19 26 -19 23 0 26 3 21 28 -3 15 0 49 6 75 9 40 8 50 -4 58 -19
12 -25 11 -39 -5z"/>
<path d="M4677 939 c-6 -24 1 -49 14 -49 5 0 9 16 9 35 0 38 -14 47 -23 14z"/>
<path d="M4787 892 c-6 -75 4 -98 34 -81 21 11 25 49 9 80 -8 13 -7 19 0 19
19 0 6 32 -16 41 -20 7 -22 4 -27 -59z"/>
<path d="M760 914 c0 -14 4 -23 10 -19 6 3 10 15 10 26 0 10 -4 19 -10 19 -5
0 -10 -12 -10 -26z"/>
<path d="M4920 871 c0 -39 4 -71 9 -71 15 0 19 11 22 75 3 51 1 60 -13 63 -16
3 -18 -5 -18 -67z"/>
<path d="M4390 914 c0 -9 5 -14 12 -12 18 6 21 28 4 28 -9 0 -16 -7 -16 -16z"/>
<path d="M836 905 c-7 -18 9 -55 25 -55 5 0 7 12 3 28 -9 36 -20 47 -28 27z"/>
<path d="M1410 885 c0 -9 -6 -12 -15 -9 -10 4 -15 0 -15 -14 0 -25 12 -34 34
-26 17 7 23 64 6 64 -5 0 -10 -7 -10 -15z"/>
<path d="M2117 884 c3 -8 -2 -21 -12 -28 -21 -15 -12 -36 15 -36 63 0 69 51 8
73 -12 4 -15 2 -11 -9z"/>
<path d="M3961 861 c-7 -13 -6 -23 3 -36 16 -22 52 -12 61 16 8 24 8 24 -27
33 -21 5 -30 2 -37 -13z"/>
<path d="M4549 860 c13 -11 27 -20 32 -20 17 0 9 9 -23 24 l-33 16 24 -20z"/>
<path d="M1595 860 c3 -5 12 -7 20 -3 21 7 19 13 -6 13 -11 0 -18 -4 -14 -10z"/>
<path d="M1723 853 c9 -2 23 -2 30 0 6 3 -1 5 -18 5 -16 0 -22 -2 -12 -5z"/>
<path d="M5030 852 c0 -14 35 -42 52 -42 16 0 44 27 36 35 -9 9 -88 15 -88 7z"/>
<path d="M4488 823 c7 -3 16 -2 19 1 4 3 -2 6 -13 5 -11 0 -14 -3 -6 -6z"/>
<path d="M1643 804 c15 -8 27 -23 27 -34 0 -16 -5 -18 -36 -13 -29 5 -36 3
-32 -8 3 -9 22 -15 51 -17 37 -2 48 2 57 17 19 37 -16 72 -73 71 -20 -1 -20
-2 6 -16z"/>
<path d="M4608 813 c7 -3 16 -2 19 1 4 3 -2 6 -13 5 -11 0 -14 -3 -6 -6z"/>
<path d="M4516 769 c33 -9 51 -36 35 -52 -5 -5 -17 -4 -31 3 -24 13 -48 0 -36
-19 8 -12 74 -12 99 1 45 23 0 79 -63 77 l-35 -1 31 -9z"/>
</g>
</svg>
