<?xml version="1.0" standalone="no"?>
<!DOCTYPE svg PUBLIC "-//W3C//DTD SVG 20010904//EN"
 "http://www.w3.org/TR/2001/REC-SVG-20010904/DTD/svg10.dtd">
<svg version="1.0" xmlns="http://www.w3.org/2000/svg"
 width="1600.000000pt" height="1600.000000pt" viewBox="0 0 1600.000000 1600.000000"
 preserveAspectRatio="xMidYMid meet">

<g transform="translate(0.000000,1600.000000) scale(0.100000,-0.100000)"
fill="#000000" stroke="none">
<path d="M10817 13987 c-4 -12 21 -128 53 -237 42 -147 52 -476 20 -685 -11
-71 -24 -163 -30 -203 -9 -72 -82 -366 -121 -492 -11 -36 -36 -117 -55 -180
-19 -63 -47 -149 -63 -190 -31 -83 -188 -557 -274 -830 -114 -361 -159 -554
-150 -642 2 -22 0 -38 -7 -38 -5 0 -10 -17 -10 -38 0 -21 -4 -63 -9 -93 -6
-30 -13 -75 -16 -102 -3 -26 -10 -60 -16 -75 -6 -15 -10 -28 -10 -30 4 -9 -13
-52 -20 -52 -5 0 -9 -9 -9 -20 0 -11 -7 -37 -15 -57 -50 -119 -84 -591 -65
-902 16 -263 26 -383 33 -401 3 -8 8 -44 11 -80 8 -97 78 -446 122 -605 57
-205 177 -561 211 -628 8 -16 16 -37 18 -47 11 -59 306 -671 387 -805 7 -11
23 -37 36 -58 12 -21 32 -54 44 -75 11 -20 29 -50 39 -67 10 -16 28 -48 40
-70 41 -76 130 -205 152 -220 59 -42 126 6 146 107 5 24 28 108 51 188 43 151
47 167 74 290 9 41 25 107 35 145 11 39 31 129 46 200 14 72 30 146 35 165 9
35 51 251 71 365 6 33 17 94 25 135 26 138 33 175 39 220 3 25 10 74 15 110 6
36 17 115 25 175 8 61 20 135 25 165 5 30 12 73 14 95 3 22 10 76 15 120 5 44
15 132 21 195 6 63 13 133 15 155 22 199 28 285 55 715 15 251 5 853 -19 1130
-12 135 -24 263 -27 285 -11 84 51 101 78 22 22 -61 45 -167 63 -287 9 -58 25
-159 36 -225 22 -135 37 -274 45 -415 3 -52 10 -153 15 -225 17 -215 23 -1075
10 -1316 -17 -293 -29 -483 -40 -619 -25 -283 -41 -468 -47 -510 -3 -25 -12
-99 -20 -165 -8 -66 -17 -138 -20 -160 -2 -22 -9 -74 -14 -115 -5 -41 -16
-120 -24 -175 -37 -249 -40 -262 -122 -433 -30 -62 -54 -115 -54 -118 0 -3 -8
-18 -19 -32 -10 -15 -37 -63 -61 -107 -34 -65 -130 -222 -220 -360 -31 -48
-132 -191 -158 -225 -156 -201 -292 -358 -439 -507 -147 -149 -377 -352 -508
-448 -22 -16 -42 -32 -45 -35 -8 -9 -260 -190 -265 -190 -3 0 -31 -17 -62 -37
-199 -128 -600 -338 -753 -393 -19 -7 -58 -23 -87 -36 -28 -13 -55 -24 -60
-24 -4 0 -21 -7 -38 -16 -16 -8 -53 -21 -81 -29 -28 -7 -80 -25 -115 -39 -90
-35 -312 -97 -504 -140 -188 -42 -334 -65 -500 -81 -88 -8 -207 -20 -265 -25
-236 -22 -659 -5 -1020 41 -140 18 -211 31 -515 97 -111 24 -331 93 -422 131
-37 16 -108 42 -158 59 -49 17 -130 48 -180 70 -49 21 -101 43 -115 47 -14 4
-37 16 -52 27 -15 10 -44 25 -66 32 -157 56 -655 353 -842 504 -14 11 -59 47
-101 79 -297 227 -593 520 -850 843 -94 118 -289 392 -289 407 0 4 -18 31 -40
58 -22 28 -40 54 -40 58 0 9 -123 228 -151 269 -11 15 -19 29 -19 31 0 3 -23
54 -51 113 -70 151 -84 182 -109 239 -12 28 -33 73 -46 102 -13 28 -24 55 -24
60 0 4 -11 37 -24 73 -14 36 -28 74 -32 85 -4 11 -22 63 -41 115 -19 52 -41
122 -49 155 -8 33 -24 92 -35 130 -11 39 -24 86 -29 105 -4 19 -13 53 -19 75
-18 72 -82 453 -95 570 -3 28 -10 82 -15 120 -26 187 -19 922 9 1012 6 18 7
-16 5 -92 -2 -66 -2 -112 1 -102 18 59 24 -14 24 -320 0 -401 10 -502 75 -774
49 -200 56 -228 123 -421 121 -347 362 -786 579 -1052 9 -11 36 -46 61 -79 25
-33 70 -87 100 -121 418 -464 874 -789 1442 -1029 238 -101 615 -205 910 -251
313 -49 834 -47 1144 5 642 108 1179 327 1681 688 162 116 289 225 458 390
535 524 905 1190 1066 1916 77 351 97 567 87 950 -8 324 -20 414 -112 845 -21
99 -105 358 -161 495 -127 311 -295 611 -477 854 -39 52 -80 106 -91 121 -100
133 -381 420 -550 561 -93 77 -279 219 -288 219 -3 0 -41 24 -84 54 -359 246
-858 449 -1363 555 -103 22 -106 22 -331 48 -279 31 -684 22 -1033 -23 -222
-30 -667 -161 -926 -274 -244 -106 -602 -311 -741 -424 -14 -12 -38 -30 -53
-41 -173 -125 -443 -373 -570 -525 -223 -266 -296 -367 -434 -597 -128 -213
-281 -540 -266 -566 4 -7 4 -9 -1 -5 -9 9 -54 -115 -55 -150 0 -13 -4 -21 -9
-18 -5 3 -8 -5 -8 -18 0 -13 -6 -48 -13 -77 -11 -50 -20 -83 -49 -194 -27
-104 -91 -517 -91 -586 0 -26 -7 -62 -15 -80 -14 -33 -15 -32 -11 41 5 84 21
225 37 315 21 122 18 147 -6 45 -13 -58 -24 -118 -25 -135 -1 -16 -4 -24 -7
-18 -4 12 10 150 21 198 2 11 12 56 21 100 9 44 22 103 29 130 7 28 21 86 30
130 31 145 99 374 158 524 22 58 41 109 42 115 5 25 21 66 56 142 21 45 41 92
45 105 19 61 198 410 268 523 20 33 37 63 37 68 0 4 9 18 20 30 10 13 49 70
85 127 58 92 274 387 315 431 8 9 24 28 35 42 91 116 461 495 565 578 30 24
64 53 76 64 32 33 178 149 277 221 167 122 215 156 262 183 68 40 104 72 81
72 -26 0 -488 -296 -516 -330 -3 -4 -12 -11 -21 -16 -9 -5 -36 -25 -60 -46
-24 -20 -80 -66 -124 -103 -140 -116 -185 -157 -329 -300 -153 -152 -241 -246
-296 -314 -19 -24 -56 -68 -82 -98 -27 -29 -48 -57 -48 -61 0 -4 -15 -23 -33
-42 -46 -50 -157 -202 -232 -319 -138 -213 -127 -197 -182 -291 -96 -166 -248
-472 -294 -590 -30 -76 -34 -84 -64 -154 -10 -21 -32 -82 -51 -135 -18 -53
-44 -127 -58 -164 -14 -37 -26 -78 -26 -90 0 -13 -4 -27 -9 -32 -4 -6 -13 -28
-19 -50 -5 -22 -22 -83 -36 -135 -23 -90 -41 -169 -86 -390 -22 -112 -45 -277
-60 -445 -5 -66 -15 -169 -20 -229 -19 -213 -6 -611 31 -901 5 -44 14 -114 18
-156 23 -192 94 -514 166 -749 31 -102 40 -129 59 -195 12 -44 71 -203 95
-260 9 -20 35 -81 51 -120 4 -11 20 -45 34 -76 14 -31 26 -59 26 -63 0 -9 126
-261 185 -371 105 -192 398 -641 427 -653 4 -2 8 -8 8 -13 0 -5 9 -19 19 -31
11 -13 51 -63 90 -112 39 -49 98 -121 132 -160 78 -89 446 -456 518 -516 30
-25 71 -59 90 -75 20 -17 65 -53 101 -80 36 -27 72 -56 80 -65 15 -15 132
-104 200 -150 19 -13 37 -28 38 -32 2 -4 8 -8 13 -8 5 0 48 -26 97 -59 77 -51
146 -93 337 -203 62 -35 309 -156 390 -191 235 -101 367 -152 530 -204 258
-82 347 -107 450 -128 64 -13 130 -28 148 -34 79 -25 393 -73 637 -97 159 -15
941 -12 1030 5 30 5 82 12 115 14 69 5 288 40 385 62 36 8 97 19 136 24 97 14
521 132 634 176 19 8 76 28 125 46 50 17 104 37 120 44 17 8 80 35 140 60 149
64 426 199 504 246 34 22 65 39 67 39 18 0 386 236 392 252 2 4 9 8 16 8 7 0
59 39 117 86 57 47 113 91 124 96 11 6 22 14 25 17 3 3 28 24 55 46 28 22 67
55 87 74 21 18 48 41 60 49 41 28 279 261 421 412 160 171 372 434 500 620 78
113 155 234 179 278 15 30 36 66 47 80 23 33 61 102 159 292 88 170 110 203
194 291 110 115 249 271 280 314 4 6 19 24 34 40 15 17 34 41 42 55 9 14 37
52 62 85 48 63 150 213 150 221 0 3 17 31 37 62 75 114 237 442 278 561 13 38
30 84 39 103 23 50 111 322 134 418 24 97 54 229 71 310 17 81 48 335 62 499
8 93 10 233 6 395 -6 245 -16 354 -58 641 -18 121 -30 184 -69 365 -32 149
-161 570 -192 624 -6 11 -14 31 -19 45 -7 24 -43 114 -87 216 -51 119 -231
468 -271 524 -12 16 -21 32 -21 35 0 5 -60 102 -128 206 -69 104 -171 246
-192 265 -11 10 -20 22 -20 27 0 5 -45 64 -101 131 -326 396 -710 756 -1091
1025 -18 13 -58 41 -88 63 -63 47 -372 243 -443 283 -53 29 -72 32 -80 13z
m-4322 -1505 c577 -88 1082 -289 1563 -625 340 -237 665 -563 904 -907 134
-194 307 -510 377 -690 76 -197 116 -318 156 -475 83 -324 103 -475 112 -846
5 -225 2 -313 -23 -554 -19 -185 -99 -513 -179 -740 -162 -454 -413 -875 -739
-1235 -182 -201 -415 -401 -658 -568 -456 -312 -1029 -530 -1577 -598 -176
-22 -584 -30 -778 -15 -289 22 -626 92 -873 182 -74 27 -139 49 -143 49 -16 0
-324 144 -429 201 -573 309 -1103 830 -1424 1400 -243 433 -379 847 -451 1379
-14 108 -18 199 -17 450 0 287 3 331 27 495 95 646 342 1228 737 1730 477 608
1126 1049 1852 1259 218 63 310 83 519 111 253 34 239 33 559 30 258 -3 304
-6 485 -33z m-4398 -3169 c-3 -10 -5 -2 -5 17 0 19 2 27 5 18 2 -10 2 -26 0
-35z"/>
<path d="M3945 11369 c-198 -159 -447 -426 -597 -639 -306 -435 -500 -952
-563 -1500 -23 -198 -16 -586 14 -778 33 -211 77 -396 135 -568 47 -140 154
-401 176 -429 4 -5 27 -46 50 -90 308 -573 827 -1065 1417 -1346 231 -109 507
-203 749 -253 68 -14 275 -42 359 -48 l40 -3 -32 80 c-46 116 -91 278 -109
397 -20 132 -14 505 10 647 44 252 153 611 276 911 68 164 73 177 62 165 -90
-101 -272 -385 -361 -562 -88 -176 -174 -415 -216 -601 -13 -57 -26 -106 -29
-110 -14 -14 -217 118 -331 214 -445 379 -690 881 -712 1461 -7 174 4 281 47
453 69 280 234 642 477 1045 125 208 153 251 609 935 222 333 404 611 404 617
0 15 -101 41 -215 54 -282 31 -593 -63 -850 -259 -451 -343 -780 -904 -890
-1517 -38 -211 -28 -513 24 -700 11 -38 17 -73 14 -78 -9 -15 -111 135 -172
253 -132 258 -188 538 -178 890 13 464 165 938 425 1327 68 104 74 113 70 113
-2 0 -48 -36 -103 -81z"/>
<path d="M5840 10988 c-107 -161 -257 -385 -333 -498 -169 -251 -356 -543
-429 -670 -30 -52 -65 -111 -76 -130 -186 -313 -348 -706 -409 -990 -28 -131
-25 -463 5 -625 65 -342 198 -639 404 -900 47 -58 84 -86 52 -38 -158 239
-257 500 -305 803 -18 109 -18 393 -1 485 61 323 150 591 321 964 55 118 255
516 308 611 11 19 39 71 63 115 24 44 105 193 180 330 76 138 174 317 219 400
86 157 221 420 221 429 0 32 -55 -39 -220 -286z"/>
<path d="M4668 13266 c-67 -34 -120 -67 -114 -73 5 -5 76 35 86 48 3 3 19 10
37 13 17 4 34 14 37 22 3 8 4 14 3 13 -1 0 -23 -11 -49 -23z"/>
<path d="M2191 9794 c0 -11 3 -14 6 -6 3 7 2 16 -1 19 -3 4 -6 -2 -5 -13z"/>
<path d="M2171 9720 c-1 -8 -4 -26 -7 -40 -5 -22 -4 -23 6 -7 6 10 9 28 7 40
-2 12 -5 15 -6 7z"/>
<path d="M2083 9005 c0 -22 2 -30 4 -17 2 12 2 30 0 40 -3 9 -5 -1 -4 -23z"/>
<path d="M2081 8944 c0 -11 3 -14 6 -6 3 7 2 16 -1 19 -3 4 -6 -2 -5 -13z"/>
<path d="M6935 2973 c-237 -22 -425 -133 -506 -298 -31 -64 -34 -77 -34 -165
0 -111 18 -158 90 -238 l43 -47 75 0 75 0 -14 -43 c-16 -55 -16 -55 -50 -41
-16 6 -67 12 -114 12 -131 0 -222 -47 -276 -145 -24 -45 -29 -64 -29 -123 1
-143 84 -225 257 -255 91 -16 183 -1 271 44 l68 35 32 -19 c110 -63 305 -82
425 -41 118 40 214 122 283 240 l37 62 6 -35 c11 -57 64 -152 108 -191 146
-132 424 -137 612 -11 l65 43 30 -37 c82 -103 277 -128 423 -55 93 46 200 171
277 322 43 85 21 155 -60 187 -73 29 -107 10 -164 -89 -36 -63 -117 -149 -155
-165 -52 -21 -61 -10 -58 72 l3 73 65 35 c99 54 246 204 297 305 106 207 111
363 16 474 -54 64 -104 86 -193 85 -81 0 -143 -24 -209 -80 -43 -36 -111 -133
-155 -222 -38 -75 -106 -266 -106 -296 0 -27 -13 -18 -42 28 -85 133 -292 165
-478 74 -45 -22 -88 -55 -137 -106 l-73 -74 0 79 c0 97 -28 212 -72 296 -42
80 -155 193 -235 235 -103 54 -276 87 -398 75z m207 -98 c291 -61 452 -314
409 -641 -41 -311 -201 -508 -425 -522 -109 -6 -263 38 -328 95 -16 14 -21 13
-55 -17 -66 -58 -116 -75 -223 -75 -83 0 -102 3 -145 26 -66 33 -95 77 -95
141 0 59 17 94 64 136 69 60 193 68 300 19 l56 -26 36 117 c87 281 107 341
139 407 19 39 49 87 68 108 29 31 41 37 77 37 77 0 98 -27 60 -80 -40 -56 -80
-158 -145 -370 -37 -118 -75 -235 -86 -260 -19 -43 -19 -45 -2 -58 40 -30 99
-54 165 -68 63 -13 76 -13 127 2 142 41 233 226 233 474 1 129 -10 187 -49
267 -81 165 -305 229 -496 140 -136 -63 -199 -196 -151 -316 14 -36 14 -41 -1
-64 -20 -30 -66 -51 -94 -42 -35 11 -89 91 -101 150 -13 64 4 150 43 212 105
166 382 259 619 208z m1783 -18 c140 -78 102 -347 -78 -542 -62 -69 -136 -124
-223 -168 -50 -25 -51 -27 -57 -79 -15 -120 2 -206 45 -229 32 -17 102 -12
146 10 56 29 130 107 176 185 40 68 54 77 80 50 14 -14 13 -21 -15 -77 -67
-132 -143 -222 -224 -265 -43 -23 -62 -27 -140 -27 -72 0 -98 4 -130 21 -48
25 -94 95 -102 153 -3 23 -8 41 -12 40 -3 0 -20 -19 -36 -42 -78 -107 -220
-177 -361 -177 -146 0 -239 40 -294 126 -64 102 -63 219 3 359 72 151 202 235
362 235 135 0 215 -68 215 -181 0 -55 -37 -136 -78 -171 -70 -59 -117 -73
-245 -73 l-119 0 6 -40 c14 -86 85 -135 198 -135 96 0 165 28 242 100 79 75
109 132 130 247 26 147 83 330 136 439 108 219 251 311 375 241z m-2144 -321
c-29 -69 -50 -76 -32 -10 9 33 49 89 58 81 1 -2 -10 -34 -26 -71z m468 1 c32
-61 35 -76 39 -175 4 -123 -12 -219 -54 -312 -55 -122 -138 -156 -257 -106
l-35 14 43 139 c86 281 98 319 121 371 29 65 84 144 98 139 6 -2 26 -34 45
-70z m881 -607 c-8 -5 -22 -9 -30 -9 -10 0 -8 3 5 9 27 12 43 12 25 0z m-53
-16 c-3 -3 -12 -4 -19 -1 -8 3 -5 6 6 6 11 1 17 -2 13 -5z"/>
<path d="M6484 1956 c-49 -22 -61 -83 -22 -110 50 -36 141 -9 184 53 13 18 11
21 -29 39 -60 29 -97 34 -133 18z"/>
<path d="M8804 2735 c-38 -26 -112 -196 -180 -412 -20 -65 -21 -72 -5 -64 28
15 107 105 144 163 66 103 114 257 96 305 -10 27 -26 29 -55 8z"/>
<path d="M7984 2291 c-59 -36 -142 -166 -120 -189 16 -15 117 -3 159 20 67 37
111 140 75 176 -18 18 -79 14 -114 -7z"/>
<path d="M9900 2965 c-240 -39 -408 -144 -483 -302 -28 -60 -32 -78 -32 -153
0 -71 4 -94 27 -142 50 -107 142 -170 218 -148 18 5 35 8 37 6 5 -5 -73 -313
-98 -384 -23 -67 -24 -94 -4 -132 35 -67 176 -96 262 -54 49 24 71 69 113 226
l32 123 116 0 c89 0 130 5 172 19 74 26 143 65 186 105 19 19 37 31 40 29 2
-3 -7 -47 -20 -98 -48 -177 -44 -268 15 -349 50 -70 140 -99 248 -82 57 9 142
43 182 72 12 9 21 6 42 -15 75 -75 199 -73 313 3 l47 32 26 -24 c92 -86 243
-95 364 -23 l54 33 31 -28 c59 -52 156 -60 247 -20 39 17 41 17 79 -3 77 -39
206 -31 261 17 20 17 31 43 46 111 42 189 81 310 111 349 17 21 32 36 35 33 3
-2 -10 -67 -27 -143 -39 -171 -39 -249 2 -310 59 -89 202 -115 323 -59 33 15
70 37 82 48 l22 21 33 -31 c17 -18 40 -34 50 -38 26 -8 23 -15 -23 -59 -156
-151 -120 -386 67 -441 120 -35 260 1 348 89 48 48 114 173 141 269 11 38 22
59 35 63 11 3 54 31 95 61 42 30 80 54 84 54 5 0 14 -7 21 -16 8 -8 27 -21 44
-28 88 -36 201 -26 305 29 l64 34 33 -28 c88 -77 226 -61 347 40 l47 40 48
-40 c145 -122 384 -133 582 -25 50 27 154 125 191 179 41 61 89 165 89 194 0
62 -94 130 -157 115 -22 -6 -23 -4 -23 62 0 157 -99 257 -268 271 -199 16
-380 -92 -472 -280 -22 -46 -40 -89 -40 -96 0 -16 -47 -108 -60 -116 -13 -8
-10 6 46 202 24 84 44 160 44 169 0 29 -33 72 -72 94 -47 27 -142 37 -190 21
-60 -20 -75 -47 -122 -212 -50 -174 -78 -249 -108 -291 -41 -59 -36 -21 34
231 43 157 44 192 4 230 -13 12 -45 29 -71 37 -105 31 -201 5 -232 -63 -10
-21 -19 -40 -20 -42 -1 -2 -17 7 -35 21 -115 88 -310 122 -463 83 -168 -44
-340 -203 -404 -372 -12 -32 -30 -69 -41 -83 -16 -21 -15 -13 7 60 19 62 26
109 27 175 1 82 -2 94 -28 139 -22 38 -39 53 -83 73 -48 22 -65 25 -127 21
-45 -3 -88 -13 -117 -28 l-46 -23 -57 28 c-48 23 -65 27 -124 23 -84 -4 -126
-30 -143 -89 -7 -21 -14 -39 -17 -39 -2 0 -20 13 -38 30 -77 67 -182 100 -319
100 -148 0 -250 -36 -355 -126 -87 -74 -140 -145 -197 -264 -31 -63 -58 -110
-60 -103 -4 11 24 122 76 304 20 71 14 106 -25 141 -75 66 -244 63 -288 -4 -9
-14 -38 -101 -64 -194 -46 -158 -79 -241 -116 -289 -8 -11 -16 -15 -16 -10 0
11 56 232 87 345 10 36 17 77 15 92 -4 37 -51 81 -99 96 -48 14 -132 16 -166
3 -23 -9 -24 -7 -35 61 -28 183 -169 325 -374 377 -104 26 -236 33 -338 16z
m265 -90 c109 -20 202 -66 263 -128 85 -86 112 -177 92 -301 -23 -144 -101
-250 -228 -313 l-76 -38 -130 2 c-72 0 -142 3 -155 5 -23 3 -26 -2 -61 -142
-20 -80 -42 -161 -49 -181 -18 -55 -77 -73 -150 -48 -30 10 -32 15 -28 43 7
41 110 424 148 551 82 267 183 393 282 352 46 -20 51 -30 26 -53 -55 -50 -177
-386 -147 -406 20 -12 155 -10 200 4 57 17 131 87 158 150 63 146 21 292 -102
352 -227 109 -558 -23 -558 -225 0 -24 8 -65 17 -91 17 -47 17 -48 -6 -72 -13
-14 -37 -28 -53 -32 -26 -5 -36 0 -69 32 -52 51 -72 107 -67 186 5 81 37 145
103 207 134 127 377 187 590 146z m83 -353 c6 -78 -26 -153 -81 -193 -36 -26
-102 -48 -112 -37 -6 6 52 183 76 229 10 20 25 39 34 42 8 4 20 18 27 32 l12
26 20 -20 c14 -14 21 -38 24 -79z m-477 7 c-30 -63 -30 -64 -31 -27 0 25 8 46
26 68 15 17 28 29 30 27 2 -2 -9 -33 -25 -68z m2240 -119 c66 -24 129 -66 129
-84 0 -19 -49 -76 -65 -76 -7 0 -35 11 -62 25 -126 66 -239 54 -337 -36 -98
-89 -165 -265 -137 -359 21 -72 83 -62 160 27 44 51 131 219 152 291 9 31 19
44 36 48 32 9 88 -3 112 -24 l21 -17 -35 -138 c-19 -77 -35 -156 -35 -178 0
-82 71 -70 160 28 76 84 98 129 154 321 47 162 53 178 79 190 23 11 38 11 78
2 61 -15 70 -30 53 -88 -20 -67 -18 -68 31 -23 132 121 264 151 335 76 19 -20
25 -39 28 -90 4 -53 -3 -90 -43 -229 -53 -188 -56 -239 -15 -244 63 -7 139 81
231 267 51 103 73 136 129 191 138 139 318 181 499 118 67 -23 131 -63 131
-82 0 -20 -49 -76 -67 -76 -8 0 -33 11 -56 24 -23 14 -71 30 -107 37 -93 17
-159 -3 -234 -72 -126 -115 -195 -363 -111 -401 35 -16 76 5 130 64 48 54 123
194 151 283 11 35 24 57 36 61 28 9 95 -5 119 -25 l22 -17 -61 -229 c-34 -126
-59 -231 -57 -233 10 -10 109 65 158 118 87 96 130 184 187 379 27 96 56 178
63 183 18 12 103 10 132 -4 14 -6 25 -18 25 -25 0 -8 -18 -81 -40 -161 -52
-188 -80 -330 -73 -364 15 -75 129 -22 204 95 37 56 58 116 141 387 l23 75 67
0 c110 0 110 -1 54 -197 -56 -196 -68 -260 -64 -335 4 -69 15 -75 73 -37 69
44 136 145 180 267 15 40 37 90 50 112 34 58 117 132 183 163 50 24 69 27 158
27 93 0 104 -2 142 -27 54 -36 76 -79 76 -148 -1 -95 -59 -176 -159 -222 -43
-20 -66 -23 -163 -23 l-112 0 0 -30 c0 -50 31 -97 80 -123 40 -21 55 -23 130
-20 68 4 96 10 139 32 67 35 140 107 181 180 33 59 53 67 74 33 28 -44 -129
-254 -231 -309 -83 -45 -155 -61 -257 -56 -116 6 -180 32 -241 100 -24 27 -46
62 -50 78 -10 44 -20 44 -48 2 -38 -58 -112 -128 -160 -151 -25 -12 -63 -21
-91 -21 -75 0 -115 53 -117 154 l0 31 -16 -25 c-65 -98 -183 -170 -279 -170
-80 0 -154 50 -154 104 0 45 -15 47 -48 3 -43 -56 -135 -132 -199 -163 l-52
-26 -32 -96 c-41 -126 -61 -164 -116 -223 -34 -36 -59 -53 -96 -64 -107 -32
-220 -8 -251 54 -22 42 -20 123 3 169 36 70 125 134 249 178 43 15 82 32 88
38 7 6 25 56 42 111 28 92 29 98 9 70 -49 -67 -95 -109 -142 -131 -121 -57
-244 -9 -275 107 l-11 40 -51 -56 c-69 -76 -124 -106 -201 -112 -53 -4 -67 -2
-97 19 -22 15 -40 38 -49 64 -13 38 -11 52 33 251 38 169 46 215 37 232 -24
45 -99 15 -186 -73 -34 -35 -65 -74 -68 -87 -38 -171 -98 -375 -113 -386 -23
-17 -125 -17 -149 0 -14 11 -17 22 -12 55 4 22 10 49 14 59 4 10 -14 -3 -40
-29 -78 -77 -199 -119 -256 -88 -36 19 -61 70 -61 125 l-1 50 -17 -25 c-99
-147 -234 -204 -343 -147 -46 25 -89 84 -89 125 0 12 -3 22 -7 22 -5 0 -29
-24 -55 -54 -84 -95 -201 -133 -262 -85 -35 27 -48 61 -47 122 l0 48 -21 -28
c-82 -109 -165 -163 -263 -171 -49 -3 -69 0 -104 17 -71 37 -88 116 -55 258
28 122 114 416 125 430 13 15 96 18 133 3 34 -13 33 -28 -10 -185 -73 -266
-89 -370 -59 -395 23 -19 70 -2 122 45 85 76 124 159 193 415 17 63 37 118 43
122 18 12 103 9 132 -4 33 -15 32 -34 -10 -173 -40 -134 -75 -296 -75 -353 0
-81 45 -79 127 5 39 40 68 86 114 181 54 111 72 137 138 203 118 119 224 163
369 154 45 -3 105 -14 133 -25z m126 -290 c-27 -66 -70 -135 -75 -120 -2 5 6
44 18 87 17 63 26 81 48 94 15 8 28 12 30 8 2 -4 -8 -35 -21 -69z m-412 -5
c-29 -65 -95 -169 -102 -161 -15 14 55 167 95 209 36 38 38 23 7 -48z m1646
-28 c-22 -45 -51 -95 -65 -112 l-25 -30 -1 26 c0 50 117 244 128 211 2 -7 -14
-49 -37 -95z m429 80 c0 -17 -69 -161 -75 -155 -7 6 32 138 46 154 14 17 29
18 29 1z m1350 -237 c-8 -5 -22 -9 -30 -9 -10 0 -8 3 5 9 27 12 43 12 25 0z
m-53 -16 c-3 -3 -12 -4 -19 -1 -8 3 -5 6 6 6 11 1 17 -2 13 -5z"/>
<path d="M15000 2286 c-48 -33 -95 -99 -114 -162 -5 -18 -1 -22 24 -28 44 -8
119 11 157 40 45 34 65 76 61 127 l-3 42 -45 3 c-34 2 -53 -3 -80 -22z"/>
<path d="M13294 1541 c-115 -67 -164 -179 -81 -189 39 -5 90 53 117 132 12 36
20 70 18 76 -2 5 -26 -3 -54 -19z"/>
<path d="M1478 2946 c-153 -55 -256 -185 -402 -511 -45 -100 -45 -100 -83
-103 -21 -1 -72 -10 -113 -18 -173 -37 -284 -117 -352 -254 -30 -59 -33 -73
-33 -155 0 -80 3 -95 27 -137 87 -146 290 -188 475 -98 84 42 165 132 229 254
49 95 57 104 82 87 11 -7 8 -32 -14 -136 l-28 -127 19 -36 c29 -51 83 -76 166
-76 75 1 132 24 160 64 10 14 30 83 44 154 14 71 30 137 36 147 11 22 71 28
64 7 -36 -111 -66 -246 -61 -274 15 -79 142 -126 258 -93 75 20 85 37 132 229
43 173 74 266 83 244 2 -6 -14 -84 -37 -172 -49 -195 -50 -224 -12 -262 64
-64 225 -66 293 -4 21 19 45 93 84 269 25 107 60 204 70 193 2 -2 -7 -46 -21
-98 -13 -52 -27 -130 -30 -172 -6 -70 -4 -82 19 -130 31 -61 71 -92 142 -108
65 -15 125 -6 207 32 l67 31 30 -26 c81 -67 241 -55 362 29 l37 25 33 -30 c18
-17 36 -31 39 -31 3 0 11 -4 19 -9 12 -8 3 -22 -42 -71 -43 -46 -61 -75 -73
-117 -59 -204 86 -353 307 -315 79 14 116 30 174 77 49 40 115 154 149 260 25
76 29 82 72 104 24 13 76 51 115 83 l70 59 26 -25 c106 -106 331 -111 497 -11
41 25 70 35 100 35 54 0 137 23 179 49 19 12 37 21 39 21 3 0 11 -13 18 -30
20 -49 101 -117 161 -134 104 -31 225 -12 319 52 30 20 83 45 118 54 34 10 79
29 100 42 99 62 211 232 198 300 -8 42 -63 91 -112 101 -49 9 -87 -15 -123
-80 -32 -56 -51 -70 -51 -36 0 10 -18 81 -40 157 -33 114 -38 144 -30 168 5
16 10 45 10 65 0 118 -152 178 -281 112 -89 -46 -198 -174 -285 -336 l-49 -90
-7 79 c-18 194 -134 298 -333 297 -137 0 -235 -39 -342 -135 -47 -43 -52 -45
-58 -26 -17 53 -141 128 -248 150 -74 15 -212 15 -269 0 -163 -44 -327 -194
-408 -376 -35 -76 -70 -137 -76 -131 -3 2 20 92 50 198 l55 194 -18 37 -18 36
39 34 c97 82 88 240 -15 298 -48 27 -138 31 -183 7 -93 -49 -141 -175 -98
-259 16 -31 16 -32 -15 -57 -28 -23 -38 -47 -85 -206 -48 -163 -95 -284 -95
-245 0 8 11 53 24 99 34 114 34 220 2 282 -17 34 -36 51 -77 72 -50 26 -63 28
-135 25 -67 -4 -90 -10 -142 -37 l-61 -33 -22 22 c-55 55 -165 66 -262 26
l-57 -24 -48 25 c-41 21 -59 24 -120 21 -92 -4 -121 -24 -145 -98 -20 -59 -39
-85 -82 -107 l-29 -15 6 38 c3 22 16 89 27 149 12 61 22 155 23 210 2 86 -1
106 -20 141 -25 47 -73 91 -120 111 -41 16 -146 16 -195 -1z m192 -96 c65 -46
74 -118 40 -316 -11 -66 -31 -166 -44 -224 -13 -58 -22 -108 -20 -111 6 -10
116 11 162 31 74 33 115 74 132 133 12 38 23 55 42 65 32 15 101 6 129 -17 18
-15 18 -19 4 -65 -8 -27 -15 -54 -15 -59 0 -6 26 15 58 45 90 86 171 120 237
98 44 -14 73 -52 81 -102 l7 -38 52 49 c72 68 126 94 200 95 73 1 110 -19 132
-72 20 -48 13 -105 -31 -255 -64 -216 -69 -277 -23 -277 35 0 83 35 130 96 63
79 87 135 142 324 27 91 53 168 59 172 6 4 33 8 59 8 59 0 110 -24 103 -48
-34 -112 -111 -392 -122 -446 -18 -84 -13 -106 26 -106 60 0 161 105 221 230
54 115 63 130 107 186 127 162 332 227 527 166 76 -23 145 -65 145 -87 0 -19
-49 -75 -65 -75 -7 0 -35 11 -62 25 -176 92 -336 28 -435 -172 -61 -122 -67
-240 -13 -265 75 -34 204 126 282 350 10 30 25 55 36 58 27 9 94 -6 118 -25
l22 -17 -53 -195 c-70 -261 -70 -262 -65 -267 9 -10 108 63 155 115 59 65 124
172 150 249 31 89 69 150 131 209 179 171 446 159 515 -22 12 -32 15 -65 12
-130 -4 -82 -19 -135 -75 -261 -8 -18 35 -15 83 7 63 29 104 77 163 191 64
126 144 249 206 318 74 82 169 114 224 76 19 -14 22 -22 16 -53 -12 -65 -7
-98 35 -252 32 -116 42 -169 42 -225 -1 -82 1 -84 63 -55 48 22 108 85 137
146 24 48 33 53 64 31 19 -15 18 -16 -9 -69 -59 -115 -137 -178 -241 -198 -36
-6 -66 -19 -84 -36 -62 -58 -173 -86 -267 -69 -131 25 -191 246 -64 234 30 -3
34 -7 40 -40 8 -53 34 -78 78 -78 44 0 88 27 72 43 -26 26 -3 107 30 107 16 0
10 34 -31 194 -22 85 -40 164 -40 175 0 33 -15 25 -57 -31 -56 -74 -102 -148
-157 -256 -90 -172 -178 -242 -308 -242 -62 0 -72 -3 -112 -34 -71 -54 -127
-71 -236 -71 -78 0 -102 4 -135 22 -54 28 -82 61 -104 118 l-18 48 -32 -47
c-62 -90 -145 -159 -269 -224 -7 -4 -28 -53 -47 -110 -44 -129 -57 -154 -112
-214 -52 -54 -112 -78 -197 -78 -108 1 -168 55 -168 151 1 114 95 203 282 269
36 13 69 27 75 32 5 5 24 54 42 111 29 92 30 99 10 72 -48 -65 -91 -105 -140
-129 -120 -60 -246 -13 -277 106 l-11 40 -57 -59 c-64 -67 -132 -104 -202
-111 -96 -9 -160 35 -160 112 l0 40 -57 -56 c-32 -31 -78 -66 -103 -77 -81
-37 -177 -23 -214 31 -28 39 -20 133 24 305 23 86 40 173 38 193 -3 31 -6 35
-33 38 -62 6 -170 -103 -200 -203 -9 -27 -31 -117 -51 -200 -22 -95 -41 -155
-51 -162 -17 -13 -119 -18 -147 -7 -25 10 -20 47 39 281 30 120 55 229 55 244
0 31 -17 49 -48 49 -29 0 -124 -88 -159 -147 -25 -43 -82 -230 -104 -342 -6
-32 -15 -64 -19 -72 -11 -17 -130 -25 -159 -10 -11 7 -21 19 -21 29 0 9 24
105 54 212 29 107 52 197 50 199 -1 1 -27 -9 -56 -23 -29 -14 -87 -33 -128
-42 -41 -8 -76 -17 -79 -19 -7 -7 -71 -288 -71 -312 0 -44 -103 -69 -166 -41
-24 11 -26 16 -20 57 3 25 20 98 36 163 17 65 30 122 30 127 0 5 -30 12 -67
15 -38 4 -84 9 -104 12 l-35 5 -58 -114 c-69 -138 -134 -215 -214 -254 -50
-24 -69 -28 -147 -28 -104 0 -156 21 -197 77 -20 28 -23 45 -23 118 0 74 3 91
27 131 73 125 222 199 398 199 l76 0 39 93 c91 217 181 374 263 456 87 87 209
113 282 61z m1659 -121 c38 -13 51 -35 51 -84 0 -79 -80 -132 -154 -101 -74
31 -63 147 17 181 39 17 46 18 86 4z m452 -641 c-22 -46 -51 -96 -65 -113
l-25 -30 -1 25 c0 53 116 247 128 212 2 -6 -15 -48 -37 -94z m429 79 c0 -17
-69 -161 -75 -155 -8 7 37 152 49 160 17 11 26 10 26 -5z m1139 -54 c7 -27 14
-55 16 -63 2 -8 -2 -23 -9 -33 -13 -17 -16 -17 -52 4 -22 13 -41 24 -42 25 -7
5 61 123 68 119 4 -3 13 -26 19 -52z"/>
<path d="M1497 2711 c-19 -21 -52 -69 -73 -107 -38 -69 -154 -346 -154 -369 0
-18 16 -22 107 -30 l79 -7 36 133 c49 181 90 378 83 400 -10 30 -40 22 -78
-20z"/>
<path d="M4625 2306 c-66 -29 -132 -124 -160 -231 -28 -110 -14 -222 30 -239
34 -13 83 -5 116 17 27 18 33 29 31 50 -4 36 12 63 46 79 39 19 65 100 66 206
1 80 0 85 -27 108 -31 27 -58 29 -102 10z m45 -117 c0 -48 -19 -129 -30 -129
-20 0 -70 -65 -80 -102 -8 -28 -15 -37 -22 -30 -13 13 6 131 31 188 19 42 77
114 92 114 5 0 9 -18 9 -41z"/>
<path d="M906 2104 c-90 -33 -146 -108 -146 -196 0 -51 21 -78 62 -78 60 0
128 81 190 228 l27 62 -47 -1 c-26 0 -65 -7 -86 -15z"/>
<path d="M3703 1540 c-93 -53 -148 -141 -111 -178 41 -41 117 25 149 130 12
38 19 71 17 73 -2 2 -27 -9 -55 -25z"/>
</g>
</svg>
